<svg preserveAspectRatio="none" width="100%" height="100%" overflow="visible" style="display: block;" viewBox="0 0 18.3333 17.5" fill="none" xmlns="http://www.w3.org/2000/svg">
<g id="Group">
<path id="Vector" d="M8.33333 0.833333V2.5M3.33333 0.833333V2.5M3.33333 1.66667H2.5C1.57953 1.66667 0.833333 2.41286 0.833333 3.33333V6.66667C0.833333 9.42624 3.07376 11.6667 5.83333 11.6667C8.59291 11.6667 10.8333 9.42624 10.8333 6.66667V3.33333C10.8333 2.41286 10.0871 1.66667 9.16667 1.66667H8.33333" stroke="var(--stroke-0, #98A2B3)" stroke-width="1.66667" stroke-linecap="round" stroke-linejoin="round"/>
<path id="Vector_2" d="M5.83333 11.6667C5.83333 14.4262 8.07376 16.6667 10.8333 16.6667C13.5929 16.6667 15.8333 14.4262 15.8333 11.6667V9.16667" stroke="var(--stroke-0, #98A2B3)" stroke-width="1.66667" stroke-linecap="round" stroke-linejoin="round"/>
<path id="Vector_3" d="M14.1667 7.5C14.1667 8.41986 14.9135 9.16667 15.8333 9.16667C16.7532 9.16667 17.5 8.41986 17.5 7.5C17.5 6.58014 16.7532 5.83333 15.8333 5.83333C14.9135 5.83333 14.1667 6.58014 14.1667 7.5V7.5" stroke="var(--stroke-0, #98A2B3)" stroke-width="1.66667" stroke-linecap="round" stroke-linejoin="round"/>
</g>
</svg>
