<svg preserveAspectRatio="none" width="100%" height="100%" overflow="visible" style="display: block;" viewBox="0 0 24 24" fill="none" xmlns="http://www.w3.org/2000/svg">
<g id="SVG">
<path id="Vector" d="M12 7V21M3 18C2.44808 18 2 17.5519 2 17V4C2 3.44808 2.44808 3 3 3H8C10.2077 3 12 4.79234 12 7C12 4.79234 13.7923 3 16 3H21C21.5519 3 22 3.44808 22 4V17C22 17.5519 21.5519 18 21 18H15C13.3443 18 12 19.3443 12 21C12 19.3443 10.6557 18 9 18L12 7" stroke="var(--stroke-0, #B86800)" stroke-width="2" stroke-linecap="round" stroke-linejoin="round"/>
</g>
</svg>
