<svg preserveAspectRatio="none" width="100%" height="100%" overflow="visible" style="display: block;" viewBox="0 0 22.0001 19.0161" fill="none" xmlns="http://www.w3.org/2000/svg">
<g id="Group">
<path id="Vector" d="M1 6.51643C1.00004 4.23838 2.40444 2.19612 4.53161 1.38083C6.65877 0.56554 9.06839 1.14597 10.591 2.84043C10.6969 2.95365 10.845 3.01792 11 3.01792C11.155 3.01792 11.3031 2.95365 11.409 2.84043C12.9271 1.13464 15.3426 0.546672 17.4749 1.36392C19.6071 2.18116 21.0109 4.23295 21 6.51643C21 8.80643 19.5 10.5164 18 12.0164L12.508 17.3294C12.1311 17.7623 11.5863 18.0124 11.0123 18.0161C10.4383 18.0197 9.89039 17.7765 9.508 17.3484L4 12.0164C2.5 10.5164 1 8.81643 1 6.51643" stroke="var(--stroke-0, #15803D)" stroke-width="2" stroke-linecap="round" stroke-linejoin="round"/>
<path id="Vector_2" d="M2.22 10.0164H8.5L9 9.01643L11 13.5164L13 6.51643L14.5 10.0164H19.77" stroke="var(--stroke-0, #15803D)" stroke-width="2" stroke-linecap="round" stroke-linejoin="round"/>
</g>
</svg>
