<svg preserveAspectRatio="none" width="100%" height="100%" overflow="visible" style="display: block;" viewBox="0 0 22.0152 16.0004" fill="none" xmlns="http://www.w3.org/2000/svg">
<g id="Group">
<path id="Vector" d="M20.4188 6.92236C20.7847 6.76093 21.0193 6.39701 21.0151 5.99709C21.011 5.59718 20.769 5.23818 20.3998 5.08436L11.8288 1.18036C11.3016 0.939881 10.696 0.939881 10.1688 1.18036L1.59882 5.08036C1.23503 5.23969 1 5.5992 1 5.99636C1 6.39351 1.23503 6.75303 1.59882 6.91236L10.1688 10.8204C10.696 11.0608 11.3016 11.0608 11.8288 10.8204L20.4188 6.92236M20.9988 6.00036V12.0004" stroke="var(--stroke-0, #0F1724)" stroke-width="2" stroke-linecap="round" stroke-linejoin="round"/>
<path id="Vector_2" d="M4.99882 8.50036V12.0004C4.99882 13.6561 7.68733 15.0004 10.9988 15.0004C14.3103 15.0004 16.9988 13.6561 16.9988 12.0004V8.50036" stroke="var(--stroke-0, #0F1724)" stroke-width="2" stroke-linecap="round" stroke-linejoin="round"/>
</g>
</svg>
