<svg preserveAspectRatio="none" width="100%" height="100%" overflow="visible" style="display: block;" viewBox="0 0 22.0061 21.9983" fill="none" xmlns="http://www.w3.org/2000/svg">
<g id="Group">
<path id="Vector" d="M2.86093 7.61521C2.56429 6.27896 2.97151 4.8838 3.9404 3.91694C4.9093 2.95007 6.3053 2.54577 7.64093 2.84521C8.376 1.6956 9.6464 1 11.0109 1C12.3755 1 13.6459 1.6956 14.3809 2.84521C15.7187 2.54445 17.1172 2.94983 18.0868 3.91937C19.0563 4.8889 19.4617 6.28748 19.1609 7.62521C20.3106 8.36028 21.0061 9.63068 21.0061 10.9952C21.0061 12.3597 20.3106 13.6301 19.1609 14.3652C19.4604 15.7008 19.0561 17.0969 18.0892 18.0657C17.1223 19.0346 15.7272 19.4419 14.3909 19.1452C13.6568 20.2993 12.3838 20.9983 11.0159 20.9983C9.6481 20.9983 8.3751 20.2993 7.64093 19.1452C6.3053 19.4447 4.9093 19.0404 3.9404 18.0735C2.97151 17.1066 2.56429 15.7115 2.86093 14.3752C1.70231 13.642 1 12.3664 1 10.9952C1 9.62406 1.70231 8.34846 2.86093 7.61521" stroke="var(--stroke-0, white)" stroke-width="2" stroke-linecap="round" stroke-linejoin="round"/>
<path id="Vector_2" d="M8.01093 10.9952L10.0109 12.9952L14.0109 8.99521" stroke="var(--stroke-0, white)" stroke-width="2" stroke-linecap="round" stroke-linejoin="round"/>
</g>
</svg>
