<svg preserveAspectRatio="none" width="100%" height="100%" overflow="visible" style="display: block;" viewBox="0 0 46.5834 46.5839" fill="none" xmlns="http://www.w3.org/2000/svg">
<g id="Group">
<path id="Vector" d="M22.75 30.3339V41.1672C25.8917 43.2689 29.315 39.9755 31.4167 36.8339C33.7567 33.3239 31.4167 26.0005 31.4167 26.0005M6.50002 33.5839C3.25002 36.3139 2.16669 44.4172 2.16669 44.4172C2.16669 44.4172 10.27 43.3339 13 40.0839C14.5384 38.2639 14.5167 35.4689 12.805 33.7789C11.0611 32.1144 8.34348 32.0303 6.50002 33.5839" stroke="var(--stroke-0, white)" stroke-width="4.33333" stroke-linecap="round" stroke-linejoin="round"/>
<path id="Vector_2" d="M16.25 23.8339C17.403 20.8426 18.8548 17.9753 20.5834 15.2755C25.7165 7.06811 34.7364 2.10716 44.4167 2.16721C44.4167 8.06054 42.7267 18.4172 31.4167 26.0005C28.6796 27.7305 25.7762 29.1821 22.75 30.3339L16.25 23.8339" stroke="var(--stroke-0, white)" stroke-width="4.33333" stroke-linecap="round" stroke-linejoin="round"/>
<path id="Vector_3" d="M16.25 23.8339H5.41669C7.51835 26.9755 6.60835 17.2689 9.75002 15.1672C13.26 12.8272 20.5834 15.2755 20.5834 15.2755" stroke="var(--stroke-0, white)" stroke-width="4.33333" stroke-linecap="round" stroke-linejoin="round"/>
</g>
</svg>
