<svg preserveAspectRatio="none" width="100%" height="100%" overflow="visible" style="display: block;" viewBox="0 0 20.1711 20.1711" fill="none" xmlns="http://www.w3.org/2000/svg">
<g id="Group">
<path id="Vector" d="M9.18445 1.66503C9.26548 1.23118 9.64417 0.916667 10.0855 0.916667C10.5269 0.916667 10.9056 1.23118 10.9866 1.66503L11.95 6.75986C12.0901 7.50116 12.6699 8.08099 13.4112 8.22103L18.506 9.18445C18.9399 9.26548 19.2544 9.64417 19.2544 10.0855C19.2544 10.5269 18.9399 10.9056 18.506 10.9866L13.4112 11.95C12.6699 12.0901 12.0901 12.6699 11.95 13.4112L10.9866 18.506C10.9056 18.9399 10.5269 19.2544 10.0855 19.2544C9.64417 19.2544 9.26548 18.9399 9.18445 18.506L8.22103 13.4112C8.08099 12.6699 7.50116 12.0901 6.75986 11.95L1.66503 10.9866C1.23118 10.9056 0.916667 10.5269 0.916667 10.0855C0.916667 9.64417 1.23118 9.26548 1.66503 9.18445L6.75986 8.22103C7.50116 8.08099 8.08099 7.50116 8.22103 6.75986L9.18445 1.66503M17.4189 0.918862V4.58553M19.2522 2.75219H15.5855" stroke="var(--stroke-0, white)" stroke-width="1.83333" stroke-linecap="round" stroke-linejoin="round"/>
<path id="Vector_2" d="M0.918862 17.4189C0.918862 18.4307 1.74035 19.2522 2.75219 19.2522C3.76404 19.2522 4.58553 18.4307 4.58553 17.4189C4.58553 16.407 3.76404 15.5855 2.75219 15.5855C1.74035 15.5855 0.918862 16.407 0.918862 17.4189H0.918862" stroke="var(--stroke-0, white)" stroke-width="1.83333" stroke-linecap="round" stroke-linejoin="round"/>
</g>
</svg>
