<svg preserveAspectRatio="none" width="100%" height="100%" overflow="visible" style="display: block;" viewBox="0 0 18.3333 16.6667" fill="none" xmlns="http://www.w3.org/2000/svg">
<g id="Group">
<path id="Vector" d="M12.5 15.8333V14.1667C12.5 12.3257 11.0076 10.8333 9.16667 10.8333H4.16667C2.32572 10.8333 0.833333 12.3257 0.833333 14.1667V15.8333M12.5 0.94C13.9702 1.32114 14.9968 2.64789 14.9968 4.16667C14.9968 5.68544 13.9702 7.0122 12.5 7.39333M17.5 15.8333V14.1667C17.4989 12.6476 16.4708 11.3214 15 10.9417" stroke="var(--stroke-0, #4B7BFF)" stroke-width="1.66667" stroke-linecap="round" stroke-linejoin="round"/>
<path id="Vector_2" d="M3.33333 4.16667C3.33333 6.00638 4.82695 7.5 6.66667 7.5C8.50638 7.5 10 6.00638 10 4.16667C10 2.32695 8.50638 0.833333 6.66667 0.833333C4.82695 0.833333 3.33333 2.32695 3.33333 4.16667V4.16667" stroke="var(--stroke-0, #4B7BFF)" stroke-width="1.66667" stroke-linecap="round" stroke-linejoin="round"/>
</g>
</svg>
