<svg preserveAspectRatio="none" width="100%" height="100%" overflow="visible" style="display: block;" viewBox="0 0 18.3333 16.768" fill="none" xmlns="http://www.w3.org/2000/svg">
<g id="Group">
<path id="Vector" d="M8.33334 12.5005L10 14.1672C10.6899 14.8571 11.8101 14.8571 12.5 14.1672C13.1899 13.4773 13.1899 12.3571 12.5 11.6672" stroke="var(--stroke-0, white)" stroke-width="1.66667" stroke-linecap="round" stroke-linejoin="round"/>
<path id="Vector_2" d="M10.8333 10.0005L12.9167 12.0839C13.6066 12.7738 14.7268 12.7738 15.4167 12.0839C16.1066 11.394 16.1066 10.2738 15.4167 9.58387L12.1833 6.35054C11.2073 5.37569 9.62606 5.37569 8.65 6.35054L7.91667 7.08387C7.22678 7.77376 6.10656 7.77376 5.41667 7.08387C4.72678 6.39397 4.72678 5.27376 5.41667 4.58387L7.75834 2.2422C9.3223 0.682328 11.7458 0.383681 13.6417 1.5172L14.0333 1.75054C14.3882 1.96469 14.81 2.03897 15.2167 1.95887L16.6667 1.6672" stroke="var(--stroke-0, white)" stroke-width="1.66667" stroke-linecap="round" stroke-linejoin="round"/>
<path id="Vector_3" d="M16.6667 0.833869L17.5 10.0005H15.8333M1.66667 0.833869L0.833337 10.0005L6.25 15.4172C6.9399 16.1071 8.06011 16.1071 8.75 15.4172C9.4399 14.7273 9.4399 13.6071 8.75 12.9172M1.66667 1.6672H8.33334" stroke="var(--stroke-0, white)" stroke-width="1.66667" stroke-linecap="round" stroke-linejoin="round"/>
</g>
</svg>
