<svg preserveAspectRatio="none" width="100%" height="100%" overflow="visible" style="display: block;" viewBox="0 0 14.6708 14.6655" fill="none" xmlns="http://www.w3.org/2000/svg">
<g id="Group">
<path id="Vector" d="M1.90729 5.07681C1.70952 4.18597 1.98101 3.25587 2.62694 2.61129C3.27286 1.96671 4.20354 1.69718 5.09396 1.89681C5.584 1.1304 6.43093 0.666667 7.34062 0.666667C8.25031 0.666667 9.09724 1.1304 9.58729 1.89681C10.4791 1.6963 11.4115 1.96655 12.0579 2.61291C12.7042 3.25927 12.9745 4.19165 12.774 5.08348C13.5404 5.57352 14.0041 6.42045 14.0041 7.33014C14.0041 8.23983 13.5404 9.08676 12.774 9.57681C12.9736 10.4672 12.7041 11.3979 12.0595 12.0438C11.4149 12.6898 10.4848 12.9612 9.59396 12.7635C9.10451 13.5329 8.25585 13.9988 7.34396 13.9988C6.43207 13.9988 5.5834 13.5329 5.09396 12.7635C4.20354 12.9631 3.27286 12.6936 2.62694 12.049C1.98101 11.4044 1.70952 10.4743 1.90729 9.58348C1.13487 9.09465 0.666667 8.24424 0.666667 7.33014C0.666667 6.41604 1.13487 5.56564 1.90729 5.07681" stroke="var(--stroke-0, #4B7BFF)" stroke-width="1.33333" stroke-linecap="round" stroke-linejoin="round"/>
<path id="Vector_2" d="M5.34062 7.33014L6.67396 8.66348L9.34062 5.99681" stroke="var(--stroke-0, #4B7BFF)" stroke-width="1.33333" stroke-linecap="round" stroke-linejoin="round"/>
</g>
</svg>
