<svg preserveAspectRatio="none" width="100%" height="100%" overflow="visible" style="display: block;" viewBox="0 0 16.5944 18.3035" fill="none" xmlns="http://www.w3.org/2000/svg">
<g id="Group">
<path id="Vector" d="M6.35638 2.59881C6.45152 1.59785 7.29215 0.833333 8.29763 0.833333C9.3031 0.833333 10.1437 1.59785 10.2389 2.59881C10.2949 3.2321 10.6561 3.79832 11.2068 4.11604C11.7574 4.43377 12.4284 4.4631 13.0047 4.19464C13.9183 3.77989 14.9974 4.12601 15.4993 4.99473C16.0012 5.86346 15.762 6.97124 14.9464 7.55548C14.4261 7.92052 14.1164 8.51619 14.1164 9.15173C14.1164 9.78727 14.4261 10.3829 14.9464 10.748C15.762 11.3322 16.0012 12.44 15.4993 13.3087C14.9974 14.1774 13.9183 14.5236 13.0047 14.1088C12.4284 13.8404 11.7574 13.8697 11.2068 14.1874C10.6561 14.5051 10.2949 15.0714 10.2389 15.7046C10.1437 16.7056 9.3031 17.4701 8.29763 17.4701C7.29215 17.4701 6.45152 16.7056 6.35638 15.7046C6.30047 15.0711 5.93914 14.5047 5.38824 14.1869C4.83734 13.8691 4.16609 13.84 3.58971 14.1088C2.67617 14.5236 1.59701 14.1774 1.09512 13.3087C0.593225 12.44 0.832423 11.3322 1.64805 10.748C2.16829 10.3829 2.47801 9.78727 2.47801 9.15173C2.47801 8.51619 2.16829 7.92052 1.64805 7.55548C0.833612 6.97098 0.595044 5.86419 1.09637 4.99607C1.59769 4.12796 2.67555 3.78139 3.58888 4.19464C4.16518 4.4631 4.83616 4.43377 5.38683 4.11604C5.9375 3.79832 6.29871 3.2321 6.35471 2.59881" stroke="var(--stroke-0, #0F1724)" stroke-width="1.66667" stroke-linecap="round" stroke-linejoin="round"/>
<path id="Vector_2" d="M5.79721 9.15214C5.79721 10.5319 6.91743 11.6521 8.29721 11.6521C9.677 11.6521 10.7972 10.5319 10.7972 9.15214C10.7972 7.77236 9.677 6.65214 8.29721 6.65214C6.91743 6.65214 5.79721 7.77236 5.79721 9.15214V9.15214" stroke="var(--stroke-0, #0F1724)" stroke-width="1.66667" stroke-linecap="round" stroke-linejoin="round"/>
</g>
</svg>
