<svg preserveAspectRatio="none" width="100%" height="100%" overflow="visible" style="display: block;" viewBox="0 0 22 20" fill="none" xmlns="http://www.w3.org/2000/svg">
<g id="Group">
<path id="Vector" d="M15 19V17C15 14.7923 13.2077 13 11 13H5C2.79234 13 1 14.7923 1 17V19M15 1.128C16.7642 1.58536 17.9962 3.17747 17.9962 5C17.9962 6.82253 16.7642 8.41464 15 8.872M21 19V17C20.9986 15.1771 19.765 13.5857 18 13.13" stroke="var(--stroke-0, #9AA4B2)" stroke-width="2" stroke-linecap="round" stroke-linejoin="round"/>
<path id="Vector_2" d="M4 5C4 6.42906 4.7624 7.74957 6 8.4641C7.2376 9.17863 8.7624 9.17863 10 8.4641C11.2376 7.74957 12 6.42906 12 5C12 2.79234 10.2077 1 8 1C5.79234 1 4 2.79234 4 5H4" stroke="var(--stroke-0, #9AA4B2)" stroke-width="2" stroke-linecap="round" stroke-linejoin="round"/>
</g>
</svg>
