<svg preserveAspectRatio="none" width="100%" height="100%" overflow="visible" style="display: block;" viewBox="0 0 12 14.6689" fill="none" xmlns="http://www.w3.org/2000/svg">
<g id="Group">
<path id="Vector" d="M11.3333 8.0003C11.3333 11.3336 9 13.0003 6.22667 13.967C6.08144 14.0162 5.92369 14.0138 5.78 13.9603C3 13.0003 0.666667 11.3336 0.666667 8.0003V3.33363C0.666667 2.96569 0.96539 2.66697 1.33333 2.66697C2.66667 2.66697 4.33333 1.86697 5.49333 0.853633C5.78512 0.604345 6.21488 0.604345 6.50667 0.853633C7.67333 1.87363 9.33333 2.66697 10.6667 2.66697C11.0346 2.66697 11.3333 2.96569 11.3333 3.33363V8.0003" stroke="var(--stroke-0, white)" stroke-width="1.33333" stroke-linecap="round" stroke-linejoin="round"/>
<path id="Vector_2" d="M4 7.33363L5.33333 8.66697L8 6.0003" stroke="var(--stroke-0, white)" stroke-width="1.33333" stroke-linecap="round" stroke-linejoin="round"/>
</g>
</svg>
