<svg preserveAspectRatio="none" width="100%" height="100%" overflow="visible" style="display: block;" viewBox="0 0 18.3333 18.3333" fill="none" xmlns="http://www.w3.org/2000/svg">
<g id="Group">
<path id="Vector" d="M0.833333 9.16667C0.833333 13.766 4.56737 17.5 9.16667 17.5C13.766 17.5 17.5 13.766 17.5 9.16667C17.5 4.56737 13.766 0.833333 9.16667 0.833333C4.56737 0.833333 0.833333 4.56737 0.833333 9.16667V9.16667" stroke="var(--stroke-0, #4B7BFF)" stroke-width="1.66667" stroke-linecap="round" stroke-linejoin="round"/>
<path id="Vector_2" d="M4.16667 9.16667C4.16667 11.9262 6.40709 14.1667 9.16667 14.1667C11.9262 14.1667 14.1667 11.9262 14.1667 9.16667C14.1667 6.40709 11.9262 4.16667 9.16667 4.16667C6.40709 4.16667 4.16667 6.40709 4.16667 9.16667H4.16667" stroke="var(--stroke-0, #4B7BFF)" stroke-width="1.66667" stroke-linecap="round" stroke-linejoin="round"/>
<path id="Vector_3" d="M7.5 9.16667C7.5 10.0865 8.24681 10.8333 9.16667 10.8333C10.0865 10.8333 10.8333 10.0865 10.8333 9.16667C10.8333 8.24681 10.0865 7.5 9.16667 7.5C8.24681 7.5 7.5 8.24681 7.5 9.16667V9.16667" stroke="var(--stroke-0, #4B7BFF)" stroke-width="1.66667" stroke-linecap="round" stroke-linejoin="round"/>
</g>
</svg>
