<svg preserveAspectRatio="none" width="100%" height="100%" overflow="visible" style="display: block;" viewBox="0 0 15 18.3361" fill="none" xmlns="http://www.w3.org/2000/svg">
<g id="Group">
<path id="Vector" d="M14.1667 10.0004C14.1667 14.167 11.25 16.2504 7.78333 17.4587C7.6018 17.5202 7.40461 17.5173 7.225 17.4504C3.75 16.2504 0.833333 14.167 0.833333 10.0004V4.16704C0.833333 3.7068 1.20643 3.33371 1.66667 3.33371C3.33333 3.33371 5.41667 2.33371 6.86667 1.06704C7.23139 0.755431 7.7686 0.755431 8.13333 1.06704C9.59167 2.34204 11.6667 3.33371 13.3333 3.33371C13.7936 3.33371 14.1667 3.7068 14.1667 4.16704V10.0004" stroke="var(--stroke-0, white)" stroke-width="1.66667" stroke-linecap="round" stroke-linejoin="round"/>
<path id="Vector_2" d="M5 9.16704L6.66667 10.8337L10 7.50037" stroke="var(--stroke-0, white)" stroke-width="1.66667" stroke-linecap="round" stroke-linejoin="round"/>
</g>
</svg>
