<svg preserveAspectRatio="none" width="100%" height="100%" overflow="visible" style="display: block;" viewBox="0 0 12.8333 20.1661" fill="none" xmlns="http://www.w3.org/2000/svg">
<g id="Group">
<path id="Vector" d="M9.60392 10.8992L10.9927 18.7147C11.0245 18.9031 10.9361 19.0916 10.7708 19.1875C10.6055 19.2834 10.398 19.2667 10.2502 19.1455L6.9685 16.6824C6.64314 16.4393 6.19661 16.4393 5.87125 16.6824L2.58408 19.1446C2.4364 19.2655 2.22922 19.2823 2.06402 19.1866C1.89883 19.091 1.81021 18.903 1.84158 18.7147L3.22942 10.8992" stroke="var(--stroke-0, #7C5CFF)" stroke-width="1.83333" stroke-linecap="round" stroke-linejoin="round"/>
<path id="Vector_2" d="M0.916667 6.41667C0.916667 9.4522 3.38113 11.9167 6.41667 11.9167C9.4522 11.9167 11.9167 9.4522 11.9167 6.41667C11.9167 3.38113 9.4522 0.916667 6.41667 0.916667C3.38113 0.916667 0.916667 3.38113 0.916667 6.41667H0.916667" stroke="var(--stroke-0, #7C5CFF)" stroke-width="1.83333" stroke-linecap="round" stroke-linejoin="round"/>
</g>
</svg>
