<svg preserveAspectRatio="none" width="100%" height="100%" overflow="visible" style="display: block;" viewBox="0 0 11.6667 18.3328" fill="none" xmlns="http://www.w3.org/2000/svg">
<g id="Group">
<path id="Vector" d="M8.73083 9.90833L9.99333 17.0133C10.0223 17.1847 9.94189 17.356 9.79161 17.4432C9.64132 17.5304 9.4527 17.5152 9.31833 17.405L6.335 15.1658C6.03921 14.9449 5.63329 14.9449 5.3375 15.1658L2.34917 17.4042C2.21491 17.5141 2.02656 17.5293 1.87639 17.4424C1.72621 17.3554 1.64565 17.1845 1.67417 17.0133L2.93583 9.90833" stroke="var(--stroke-0, #7C5CFF)" stroke-width="1.66667" stroke-linecap="round" stroke-linejoin="round"/>
<path id="Vector_2" d="M0.833333 5.83333C0.833333 8.59291 3.07376 10.8333 5.83333 10.8333C8.59291 10.8333 10.8333 8.59291 10.8333 5.83333C10.8333 3.07376 8.59291 0.833333 5.83333 0.833333C3.07376 0.833333 0.833333 3.07376 0.833333 5.83333H0.833333" stroke="var(--stroke-0, #7C5CFF)" stroke-width="1.66667" stroke-linecap="round" stroke-linejoin="round"/>
</g>
</svg>
