<svg preserveAspectRatio="none" width="100%" height="100%" overflow="visible" style="display: block;" viewBox="0 0 16.5 20.1697" fill="none" xmlns="http://www.w3.org/2000/svg">
<g id="Group">
<path id="Vector" d="M15.5833 11.0004C15.5833 15.5837 12.375 17.8754 8.56167 19.2046C8.36198 19.2722 8.14508 19.269 7.9475 19.1954C4.125 17.8754 0.916667 15.5837 0.916667 11.0004V4.58375C0.916667 4.07782 1.32741 3.66708 1.83333 3.66708C3.66667 3.66708 5.95833 2.56708 7.55333 1.17375C7.95453 0.830974 8.54547 0.830974 8.94667 1.17375C10.5508 2.57625 12.8333 3.66708 14.6667 3.66708C15.1726 3.66708 15.5833 4.07782 15.5833 4.58375V11.0004" stroke="var(--stroke-0, #4B7BFF)" stroke-width="1.83333" stroke-linecap="round" stroke-linejoin="round"/>
<path id="Vector_2" d="M5.5 10.0837L7.33333 11.9171L11 8.25041" stroke="var(--stroke-0, #4B7BFF)" stroke-width="1.83333" stroke-linecap="round" stroke-linejoin="round"/>
</g>
</svg>
