<svg preserveAspectRatio="none" width="100%" height="100%" overflow="visible" style="display: block;" viewBox="0 0 25.6669 23.3333" fill="none" xmlns="http://www.w3.org/2000/svg">
<g id="Group">
<path id="Vector" d="M12.8335 12.8333H12.8451M17.5001 5.83333V3.5C17.5001 2.2122 16.4546 1.16667 15.1668 1.16667H10.5001C9.21233 1.16667 8.1668 2.2122 8.1668 3.5V5.83333M24.5001 14C17.4239 18.6718 8.24303 18.6718 1.1668 14" stroke="var(--stroke-0, #4B7BFF)" stroke-width="2.33333" stroke-linecap="round" stroke-linejoin="round"/>
<path id="Vector_2" d="M3.50013 5.83333H22.1668C23.4546 5.83333 24.5001 6.87887 24.5001 8.16667V19.8333C24.5001 21.1211 23.4546 22.1667 22.1668 22.1667H3.50013C2.21233 22.1667 1.1668 21.1211 1.1668 19.8333V8.16667C1.1668 6.87887 2.21233 5.83333 3.50013 5.83333V5.83333" stroke="var(--stroke-0, #4B7BFF)" stroke-width="2.33333" stroke-linecap="round" stroke-linejoin="round"/>
</g>
</svg>
